<?xml version="1.0" encoding="UTF-8"?>
<svg width="128" height="128" viewBox="0 0 128 128" fill="none" xmlns="http://www.w3.org/2000/svg">
  <rect width="128" height="128" rx="24" fill="#1E293B"/>
  <path d="M64 32C48.536 32 36 44.536 36 60V76C36 77.1046 36.8954 78 38 78H46C47.1046 78 48 77.1046 48 76V60C48 51.164 55.164 44 64 44C72.836 44 80 51.164 80 60V76C80 77.1046 80.8954 78 82 78H90C91.1046 78 92 77.1046 92 76V60C92 44.536 79.464 32 64 32Z" fill="#60A5FA"/>
  <circle cx="64" cy="88" r="8" fill="#60A5FA"/>
</svg> 